<svg width="72" height="30" viewBox="0 0 72 30" version="1.1" xmlns="http://www.w3.org/2000/svg" xmlns:xlink="http://www.w3.org/1999/xlink">
<title>codebar_green</title>
<desc>Created using Figma</desc>
<g id="Canvas" transform="matrix(2 0 0 2 -2848 3278)">
<g id="codebar_green">
<g id="Group">
<g id="Vector">
<use xlink:href="#path0_fill" transform="translate(1424.75 -1638.87)" fill="#00A151"/>
</g>
</g>
</g>
</g>
<defs>
<path id="path0_fill" d="M 0 -3.20425e-08L 2.04212 -3.20425e-08L 2.04212 14L 0 14L 0 -3.20425e-08ZM 3.29199 14L 4.44168 14L 4.44168 -3.20425e-08L 3.29199 -3.20425e-08L 3.29199 14ZM 5.27037 14L 6.41778 14L 6.41778 -3.20425e-08L 5.27037 -3.20425e-08L 5.27037 14ZM 7.92718 14L 10.4406 14L 10.4406 -3.20425e-08L 7.92718 -3.20425e-08L 7.92718 14ZM 12.4531 14L 13.7098 14L 13.7098 -3.20425e-08L 12.4531 -3.20425e-08L 12.4531 14ZM 15.6586 14L 20.8675 14L 20.8675 -3.20425e-08L 15.6586 -3.20425e-08L 15.6586 14ZM 29.2317 14L 30.9438 14L 30.9438 -3.20425e-08L 29.2317 -3.20425e-08L 29.2317 14ZM 32.4372 -3.20425e-08L 32.4372 14L 34.7708 14L 34.7708 -3.20425e-08L 32.4372 -3.20425e-08ZM 22.9574 14L 24.0775 14L 24.0775 -3.20425e-08L 22.9574 -3.20425e-08L 22.9574 14ZM 25.6825 14L 26.8026 14L 26.8026 -3.20425e-08L 25.6825 -3.20425e-08L 25.6825 14L 25.6825 14Z"/>
</defs>
</svg>
