<svg width="34" height="42" viewBox="0 0 34 42" version="1.1" xmlns="http://www.w3.org/2000/svg" xmlns:xlink="http://www.w3.org/1999/xlink">
<title>notification</title>
<desc>Created using Figma</desc>
<g id="Canvas" transform="matrix(2 0 0 2 -1468 1656)">
<g id="notification">
<g id="Group">
<g id="Group">
<g id="Vector">
<use xlink:href="#path0_fill" transform="translate(734.271 -827.157)" fill="#FFFFFF"/>
</g>
</g>
</g>
</g>
</g>
<defs>
<path id="path0_fill" d="M 15.7778 14.411C 15.2575 13.6346 14.5455 12.5715 14.5455 9.54546L 14.5455 8.18182C 14.5455 5.30489 12.6251 2.87088 10 2.08624L 10 1.8182C 10 0.815413 9.18418 0 8.18187 0C 7.17955 0 6.36367 0.815413 6.36367 1.8182L 6.36367 2.08624C 3.73871 2.87088 1.8182 5.30489 1.8182 8.18182L 1.8182 9.54546C 1.8182 12.5715 1.10621 13.6346 0.585938 14.411C 0.284958 14.8606 1.56056e-08 15.2854 1.56056e-08 15.9091C 1.56056e-08 17.391 3.08928 17.911 5.59394 18.0901C 5.94512 19.2144 6.97599 20 8.18182 20C 9.38766 20 10.4185 19.2144 10.7697 18.0901C 13.2744 17.911 16.3636 17.391 16.3636 15.9091C 16.3637 15.2854 16.0787 14.8606 15.7778 14.411ZM 7.27275 1.8182C 7.27275 1.31706 7.68026 0.90912 8.18182 0.90912C 8.68339 0.90912 9.09094 1.31702 9.09094 1.8182L 9.09094 1.89081C 8.7932 1.84794 8.49129 1.8182 8.18187 1.8182C 7.87245 1.8182 7.57053 1.84794 7.27279 1.89081L 7.27279 1.8182L 7.27275 1.8182ZM 8.18187 19.0909C 7.50244 19.0909 6.90572 18.716 6.59574 18.1472C 7.23985 18.1743 7.79915 18.1818 8.18187 18.1818C 8.56467 18.1818 9.12393 18.1743 9.76808 18.1472C 9.45806 18.716 8.8613 19.0909 8.18187 19.0909ZM 8.18187 17.2727C 4.01902 17.2727 0.90912 16.5527 0.90912 15.9091C 0.90912 15.5766 1.0494 15.3524 1.34148 14.917C 1.89277 14.0931 2.72732 12.848 2.72732 9.54546L 2.72732 8.18182C 2.72732 5.17402 5.17407 2.72727 8.18187 2.72727C 11.1897 2.72727 13.6364 5.17402 13.6364 8.18182L 13.6364 9.54546C 13.6364 12.848 14.4709 14.0931 15.0223 14.917C 15.3143 15.3525 15.4546 15.5766 15.4546 15.9091C 15.4546 16.5528 12.3447 17.2727 8.18187 17.2727Z"/>
</defs>
</svg>
