<svg width="116" height="28" viewBox="0 0 116 28" version="1.1" xmlns="http://www.w3.org/2000/svg" xmlns:xlink="http://www.w3.org/1999/xlink">
<title>rewards_green</title>
<desc>Created using Figma</desc>
<g id="Canvas" transform="matrix(2 0 0 2 -2644 3278)">
<g id="rewards_green">
<g id="Group 2.8">
<g id="Vector">
<use xlink:href="#path0_fill" transform="translate(1322.01 -1638.32)" fill="#00A151"/>
</g>
<g id="Vector">
<use xlink:href="#path1_fill" transform="translate(1322 -1633.47)" fill="#00A151"/>
</g>
</g>
<g id="Rewards">
<use xlink:href="#path2_fill" transform="translate(1338.28 -1638.87)" fill="#00A151"/>
</g>
</g>
</g>
<defs>
<path id="path0_fill" d="M 11.0654 3.07605L 5.82911 0.0512993C 5.70752 -0.0170997 5.55552 -0.0170997 5.43392 0.0512993L 0.189997 3.08365C 0.0759989 3.15965 0 3.28885 0 3.42565C 0 3.57005 0.0759989 3.69925 0.197597 3.76764L 5.43392 6.7848C 5.49472 6.8228 5.56312 6.838 5.63152 6.838C 5.69992 6.838 5.76831 6.8228 5.82911 6.7848L 11.073 3.76004C 11.1946 3.69165 11.2706 3.56245 11.2706 3.41805C 11.263 3.28125 11.187 3.15205 11.0654 3.07605ZM 5.63152 5.99441L 1.17798 3.42565L 5.63152 0.849287L 10.0851 3.41805L 5.63152 5.99441Z"/>
<path id="path1_fill" d="M 10.883 -1.15965e-07C 10.6626 -1.15965e-07 10.4878 0.174798 10.4878 0.395194L 10.4878 4.40034L 5.63912 7.19709L 0.790388 4.40794L 0.790388 0.402794C 0.790388 0.182397 0.615591 0.00759966 0.395194 0.00759966C 0.174797 0.00759966 7.24782e-09 0.182397 7.24782e-09 0.402794L 7.24782e-09 4.63593C 7.24782e-09 4.78033 0.0759989 4.90953 0.197597 4.97793L 5.43392 7.99508C 5.49472 8.03308 5.56312 8.04828 5.63152 8.04828C 5.69992 8.04828 5.76831 8.03308 5.82911 7.99508L 11.073 4.97033C 11.1946 4.90193 11.2706 4.77273 11.2706 4.62833L 11.2706 0.395194C 11.2706 0.174798 11.0958 -1.15965e-07 10.883 -1.15965e-07Z"/>
<path id="path2_fill" d="M 2.10938 7.18164L 2.91992 7.18164C 3.46354 7.18164 3.85742 7.08073 4.10156 6.87891C 4.3457 6.67708 4.46777 6.3776 4.46777 5.98047C 4.46777 5.57682 4.33594 5.28711 4.07227 5.11133C 3.80859 4.93555 3.41146 4.84766 2.88086 4.84766L 2.10938 4.84766L 2.10938 7.18164ZM 2.10938 8.14844L 2.10938 11L 0.942383 11L 0.942383 3.86133L 2.95898 3.86133C 3.88021 3.86133 4.56217 4.03385 5.00488 4.37891C 5.44759 4.72396 5.66895 5.24479 5.66895 5.94141C 5.66895 6.83008 5.20671 7.46322 4.28223 7.84082L 6.29883 11L 4.9707 11L 3.26172 8.14844L 2.10938 8.14844ZM 9.5752 11.0977C 8.73535 11.0977 8.0778 10.8535 7.60254 10.3652C 7.13053 9.8737 6.89453 9.19824 6.89453 8.33887C 6.89453 7.45671 7.11426 6.76335 7.55371 6.25879C 7.99316 5.75423 8.59701 5.50195 9.36523 5.50195C 10.0781 5.50195 10.6413 5.71842 11.0547 6.15137C 11.4681 6.58431 11.6748 7.18001 11.6748 7.93848L 11.6748 8.55859L 8.07617 8.55859C 8.09245 9.08268 8.23405 9.48633 8.50098 9.76953C 8.7679 10.0495 9.14388 10.1895 9.62891 10.1895C 9.94792 10.1895 10.2441 10.1602 10.5176 10.1016C 10.7943 10.0397 11.0905 9.9388 11.4062 9.79883L 11.4062 10.7314C 11.1263 10.8649 10.8431 10.9593 10.5566 11.0146C 10.2702 11.07 9.94303 11.0977 9.5752 11.0977ZM 9.36523 6.37109C 9.00065 6.37109 8.70768 6.48665 8.48633 6.71777C 8.26823 6.94889 8.13802 7.28581 8.0957 7.72852L 10.5469 7.72852C 10.5404 7.28255 10.4329 6.94564 10.2246 6.71777C 10.0163 6.48665 9.72982 6.37109 9.36523 6.37109ZM 17.4072 11L 16.709 8.48047C 16.6243 8.21354 16.4714 7.59342 16.25 6.62012L 16.2061 6.62012C 16.0173 7.49902 15.8675 8.1224 15.7568 8.49023L 15.0391 11L 13.7695 11L 12.2559 5.59961L 13.4277 5.59961L 14.1162 8.26074C 14.2725 8.91829 14.3831 9.48145 14.4482 9.9502L 14.4775 9.9502C 14.5101 9.71257 14.5589 9.44076 14.624 9.13477C 14.6924 8.82552 14.751 8.5944 14.7998 8.44141L 15.6201 5.59961L 16.8799 5.59961L 17.6758 8.44141C 17.7246 8.60091 17.7848 8.84505 17.8564 9.17383C 17.9313 9.5026 17.9753 9.75814 17.9883 9.94043L 18.0273 9.94043C 18.0762 9.54004 18.1901 8.98014 18.3691 8.26074L 19.0674 5.59961L 20.2197 5.59961L 18.6963 11L 17.4072 11ZM 24.5312 11L 24.3018 10.248L 24.2627 10.248C 24.0023 10.5768 23.7402 10.8014 23.4766 10.9219C 23.2129 11.0391 22.8743 11.0977 22.4609 11.0977C 21.9303 11.0977 21.5153 10.9544 21.2158 10.668C 20.9196 10.3815 20.7715 9.97624 20.7715 9.45215C 20.7715 8.89551 20.9782 8.47559 21.3916 8.19238C 21.805 7.90918 22.4349 7.75456 23.2812 7.72852L 24.2139 7.69922L 24.2139 7.41113C 24.2139 7.06608 24.1325 6.80892 23.9697 6.63965C 23.8102 6.46712 23.5612 6.38086 23.2227 6.38086C 22.946 6.38086 22.6807 6.42155 22.4268 6.50293C 22.1729 6.58431 21.9287 6.68034 21.6943 6.79102L 21.3232 5.9707C 21.6162 5.81771 21.9368 5.70215 22.2852 5.62402C 22.6335 5.54264 22.9622 5.50195 23.2715 5.50195C 23.9583 5.50195 24.4759 5.65169 24.8242 5.95117C 25.1758 6.25065 25.3516 6.72103 25.3516 7.3623L 25.3516 11L 24.5312 11ZM 22.8223 10.2188C 23.2389 10.2188 23.5726 10.1032 23.8232 9.87207C 24.0771 9.6377 24.2041 9.31055 24.2041 8.89062L 24.2041 8.42188L 23.5107 8.45117C 22.9704 8.4707 22.5765 8.56185 22.3291 8.72461C 22.085 8.88411 21.9629 9.12988 21.9629 9.46191C 21.9629 9.7028 22.0345 9.88997 22.1777 10.0234C 22.321 10.1536 22.5358 10.2188 22.8223 10.2188ZM 29.6924 5.50195C 29.9235 5.50195 30.1139 5.51823 30.2637 5.55078L 30.1514 6.62012C 29.9886 6.58105 29.8193 6.56152 29.6436 6.56152C 29.1846 6.56152 28.8118 6.71126 28.5254 7.01074C 28.2422 7.31022 28.1006 7.69922 28.1006 8.17773L 28.1006 11L 26.9531 11L 26.9531 5.59961L 27.8516 5.59961L 28.0029 6.55176L 28.0615 6.55176C 28.2406 6.22949 28.4733 5.97396 28.7598 5.78516C 29.0495 5.59635 29.3604 5.50195 29.6924 5.50195ZM 33.0908 11.0977C 32.417 11.0977 31.8913 10.8535 31.5137 10.3652C 31.1361 9.87695 30.9473 9.19173 30.9473 8.30957C 30.9473 7.42415 31.1377 6.73568 31.5186 6.24414C 31.9027 5.74935 32.4333 5.50195 33.1104 5.50195C 33.82 5.50195 34.3604 5.764 34.7314 6.28809L 34.79 6.28809C 34.7347 5.90072 34.707 5.59473 34.707 5.37012L 34.707 3.40234L 35.8594 3.40234L 35.8594 11L 34.9609 11L 34.7607 10.292L 34.707 10.292C 34.3392 10.8291 33.8005 11.0977 33.0908 11.0977ZM 33.3984 10.1699C 33.8704 10.1699 34.2139 10.0381 34.4287 9.77441C 34.6436 9.50749 34.7542 9.07617 34.7607 8.48047L 34.7607 8.31934C 34.7607 7.639 34.6501 7.1556 34.4287 6.86914C 34.2074 6.58268 33.8607 6.43945 33.3887 6.43945C 32.985 6.43945 32.6742 6.60384 32.4561 6.93262C 32.238 7.25814 32.1289 7.72363 32.1289 8.3291C 32.1289 8.92806 32.2347 9.38542 32.4463 9.70117C 32.6579 10.0137 32.9753 10.1699 33.3984 10.1699ZM 41.1279 9.46191C 41.1279 9.98926 40.9359 10.3945 40.5518 10.6777C 40.1676 10.9577 39.6175 11.0977 38.9014 11.0977C 38.182 11.0977 37.6042 10.9886 37.168 10.7705L 37.168 9.7793C 37.8027 10.0723 38.3936 10.2188 38.9404 10.2188C 39.6468 10.2188 40 10.0055 40 9.5791C 40 9.44238 39.9609 9.32845 39.8828 9.2373C 39.8047 9.14616 39.6761 9.05176 39.4971 8.9541C 39.318 8.85645 39.069 8.74577 38.75 8.62207C 38.1283 8.38118 37.7067 8.1403 37.4854 7.89941C 37.2673 7.65853 37.1582 7.34603 37.1582 6.96191C 37.1582 6.49967 37.3438 6.1416 37.7148 5.8877C 38.0892 5.63053 38.597 5.50195 39.2383 5.50195C 39.873 5.50195 40.4736 5.63053 41.04 5.8877L 40.6689 6.75195C 40.0863 6.51107 39.5964 6.39062 39.1992 6.39062C 38.5938 6.39062 38.291 6.56315 38.291 6.9082C 38.291 7.07747 38.3691 7.2207 38.5254 7.33789C 38.6849 7.45508 39.0299 7.61621 39.5605 7.82129C 40.0065 7.99382 40.3304 8.15169 40.5322 8.29492C 40.734 8.43815 40.8838 8.60417 40.9814 8.79297C 41.0791 8.97852 41.1279 9.2015 41.1279 9.46191Z"/>
</defs>
</svg>
