<svg width="62" height="40" viewBox="0 0 62 40" version="1.1" xmlns="http://www.w3.org/2000/svg" xmlns:xlink="http://www.w3.org/1999/xlink">
<title>credit-card</title>
<desc>Created using Figma</desc>
<g id="Canvas" transform="matrix(2 0 0 2 -3178 2790)">
<g id="credit-card">
<g id="Group">
<g id="Vector">
<use xlink:href="#path0_fill" transform="translate(1589.61 -1394.46)" fill="#00A151"/>
</g>
<g id="Vector">
<use xlink:href="#path1_fill" transform="translate(1592.59 -1381.97)" fill="#00A151"/>
</g>
<g id="Vector">
<use xlink:href="#path1_fill" transform="translate(1599.03 -1381.97)" fill="#00A151"/>
</g>
<g id="Vector">
<use xlink:href="#path2_fill" transform="translate(1592.59 -1379.82)" fill="#00A151"/>
</g>
<g id="Vector">
<use xlink:href="#path3_fill" transform="translate(1595.07 -1379.82)" fill="#00A151"/>
</g>
<g id="Vector">
<use xlink:href="#path2_fill" transform="translate(1598.04 -1379.82)" fill="#00A151"/>
</g>
<g id="Vector">
<use xlink:href="#path3_fill" transform="translate(1600.52 -1379.82)" fill="#00A151"/>
</g>
<g id="Vector">
<use xlink:href="#path4_fill" transform="translate(1603.49 -1379.81)" fill="#00A151"/>
</g>
<g id="Vector">
<use xlink:href="#path5_fill" transform="translate(1606.47 -1383.7)" fill="#00A151"/>
</g>
<g id="Vector">
<use xlink:href="#path6_fill" transform="translate(1592.59 -1391.02)" fill="#00A151"/>
</g>
</g>
</g>
</g>
<defs>
<path id="path0_fill" d="M 27.6525 0L 2.09043 0C 0.937895 0 0 0.814645 0 1.81573L 0 17.1295C 0 18.1306 0.937895 18.9452 2.09043 18.9452L 27.6525 18.9452C 28.8051 18.9452 29.743 18.1306 29.743 17.1295L 29.743 1.81573C 29.743 0.814645 28.8051 0 27.6525 0ZM 28.7515 17.1295C 28.7515 17.6557 28.2588 18.0841 27.6525 18.0841L 2.09043 18.0841C 1.48417 18.0841 0.991432 17.6557 0.991432 17.1295L 0.991432 1.81573C 0.991432 1.28957 1.48417 0.861147 2.09043 0.861147L 27.6525 0.861147C 28.2588 0.861147 28.7515 1.28957 28.7515 1.81573L 28.7515 17.1295Z"/>
<path id="path1_fill" d="M 4.95716 0L 0.495716 0C 0.221585 0 0 0.192897 0 0.430574C 0 0.66825 0.221585 0.861147 0.495716 0.861147L 4.95716 0.861147C 5.23129 0.861147 5.45288 0.66825 5.45288 0.430574C 5.45288 0.192897 5.23129 0 4.95716 0Z"/>
<path id="path2_fill" d="M 0.991432 0L 0.495716 0C 0.221585 0 0 0.192897 0 0.430574C 0 0.66825 0.221585 0.861147 0.495716 0.861147L 0.991432 0.861147C 1.26556 0.861147 1.48715 0.66825 1.48715 0.430574C 1.48715 0.192897 1.26556 0 0.991432 0Z"/>
<path id="path3_fill" d="M 1.48715 0L 0.495716 0C 0.221585 0 0 0.192897 0 0.430574C 0 0.66825 0.221585 0.861147 0.495716 0.861147L 1.48715 0.861147C 1.76128 0.861147 1.98286 0.66825 1.98286 0.430574C 1.98286 0.192897 1.76128 0 1.48715 0Z"/>
<path id="path4_fill" d="M 0.143758 0.119485C 0.0540335 0.201294 0 0.313242 0 0.425191C 0 0.537141 0.0540335 0.649089 0.143758 0.730898C 0.237448 0.808401 0.36683 0.855765 0.495716 0.855765C 0.624602 0.855765 0.753488 0.808401 0.847674 0.730898C 0.936903 0.649089 0.991432 0.537141 0.991432 0.425191C 0.991432 0.313242 0.936903 0.201294 0.847674 0.119485C 0.659302 -0.0398277 0.32172 -0.0398277 0.143758 0.119485Z"/>
<path id="path5_fill" d="M 6.94003 0C 6.30749 0 5.7161 0.15027 5.20502 0.407753C 4.69394 0.15027 4.10255 0 3.47001 0C 1.55704 0 0 1.352 0 3.01401C 0 4.67603 1.55704 6.02803 3.47001 6.02803C 4.10255 6.02803 4.69394 5.87776 5.20502 5.62028C 5.7161 5.87776 6.30749 6.02803 6.94003 6.02803C 8.85299 6.02803 10.41 4.67603 10.41 3.01401C 10.41 1.352 8.85299 0 6.94003 0ZM 5.94859 3.01401C 5.94859 3.61423 5.66306 4.15676 5.20502 4.54772C 4.74698 4.15676 4.46144 3.61423 4.46144 3.01401C 4.46144 2.4138 4.74698 1.87127 5.20502 1.48031C 5.66306 1.87127 5.94859 2.4138 5.94859 3.01401ZM 0.991432 3.01401C 0.991432 1.82692 2.10332 0.861147 3.47001 0.861147C 3.78281 0.861147 4.07974 0.917122 4.35586 1.0097C 3.8071 1.54275 3.47001 2.24415 3.47001 3.01401C 3.47001 3.78388 3.8071 4.48528 4.35586 5.01833C 4.07974 5.11091 3.78281 5.16688 3.47001 5.16688C 2.10332 5.16688 0.991432 4.20111 0.991432 3.01401ZM 6.94003 5.16688C 6.62723 5.16688 6.3303 5.11091 6.05418 5.01833C 6.60294 4.48528 6.94003 3.78388 6.94003 3.01401C 6.94003 2.24415 6.60294 1.54275 6.05418 1.0097C 6.3303 0.917122 6.62723 0.861147 6.94003 0.861147C 8.30671 0.861147 9.41861 1.82692 9.41861 3.01401C 9.41861 4.20111 8.30671 5.16688 6.94003 5.16688Z"/>
<path id="path6_fill" d="M 1.11784 6.02803L 4.09214 6.02803L 4.83075 6.02803L 7.80505 6.02803C 8.42123 6.02803 8.92289 5.59229 8.92289 5.05709L 8.92289 1.6125L 8.92289 0.970943C 8.92289 0.43574 8.42123 0 7.80505 0L 4.09214 0L 1.11784 0C 0.501665 0 0 0.43574 0 0.970943L 0 5.05709C 0 5.59229 0.501665 6.02803 1.11784 6.02803ZM 2.9743 3.44459L 0.991432 3.44459L 0.991432 2.58344L 2.9743 2.58344L 2.9743 3.44459ZM 0.991432 5.05709L 0.991432 4.30574L 2.9743 4.30574L 2.9743 5.05709C 2.9743 5.09455 2.98223 5.13028 2.98719 5.16688L 1.11784 5.16688C 1.04794 5.16688 0.991432 5.1178 0.991432 5.05709ZM 7.93146 3.44459L 5.94859 3.44459L 5.94859 2.69324C 5.94859 2.63253 6.0051 2.58344 6.075 2.58344L 7.80505 2.58344C 7.84818 2.58344 7.88932 2.57655 7.93146 2.57225L 7.93146 3.44459L 7.93146 3.44459ZM 7.80505 5.16688L 5.9357 5.16688C 5.94066 5.13028 5.94859 5.09455 5.94859 5.05709L 5.94859 4.30574L 7.93146 4.30574L 7.93146 5.05709C 7.93146 5.1178 7.87495 5.16688 7.80505 5.16688ZM 7.80505 0.861147C 7.87495 0.861147 7.93146 0.910232 7.93146 0.970943L 7.93146 1.6125C 7.93146 1.67321 7.87495 1.72229 7.80505 1.72229L 6.075 1.72229C 5.45883 1.72229 4.95716 2.15803 4.95716 2.69324L 4.95716 5.05709C 4.95716 5.1178 4.90065 5.16688 4.83075 5.16688L 4.09214 5.16688C 4.02224 5.16688 3.96573 5.1178 3.96573 5.05709L 3.96573 0.970943C 3.96573 0.910232 4.02224 0.861147 4.09214 0.861147L 7.80505 0.861147ZM 1.11784 0.861147L 2.98719 0.861147C 2.98223 0.897746 2.9743 0.933483 2.9743 0.970943L 2.9743 1.72229L 0.991432 1.72229L 0.991432 0.970943C 0.991432 0.910232 1.04794 0.861147 1.11784 0.861147Z"/>
</defs>
</svg>
