<svg width="120" height="46" viewBox="0 0 120 46" version="1.1" xmlns="http://www.w3.org/2000/svg" xmlns:xlink="http://www.w3.org/1999/xlink">
<title>white</title>
<desc>Created using Figma</desc>
<g id="Canvas" transform="matrix(2 0 0 2 -1154 1656)">
<g id="white">
<g id="o.lab">
<use xlink:href="#path0_fill" transform="translate(599.089 -827.123)" fill="#FFFFFF"/>
<use xlink:href="#path1_fill" transform="translate(599.089 -827.123)" fill="#FFFFFF"/>
</g>
<g id="o.lab">
<use xlink:href="#path2_fill" transform="translate(605.095 -822.86)" fill="#FFFFFF"/>
<use xlink:href="#path3_fill" transform="translate(605.095 -822.86)" fill="#FFFFFF"/>
</g>
<g id="o.lab">
<use xlink:href="#path4_fill" transform="translate(620.451 -827.128)" fill="#FFFFFF"/>
</g>
<g id="o.lab">
<use xlink:href="#path5_fill" transform="translate(593.989 -809.273)" fill="#FFFFFF"/>
</g>
<g id="o.lab">
<use xlink:href="#path6_fill" transform="translate(577.135 -822.86)" fill="#FFFFFF"/>
</g>
</g>
</g>
<defs>
<path id="path0_fill" d="M 4.29684 0L 4.3051 21.2507L 0.00825739 21.2507L 0 0L 4.29684 0Z"/>
<path id="path1_fill" d="M 4.29684 0L 4.3051 21.2507L 0.00825739 21.2507L 0 0L 4.29684 0Z"/>
<path id="path2_fill" d="M 3.69728 11.758C 3.69728 12.2244 3.88604 12.6463 4.26354 13.0238C 4.64104 13.3791 5.14067 13.5567 5.76244 13.5567C 6.36199 13.5567 6.96156 13.4235 7.56112 13.157C 8.18288 12.8905 8.77134 12.4908 9.32649 11.9579L 9.32649 9.49303L 6.06222 9.49303C 5.30722 9.49303 4.71876 9.7262 4.29685 10.1925C 3.89714 10.6588 3.69728 11.1807 3.69728 11.758ZM 5.82905 16.9875C 3.85273 16.9875 2.38714 16.5101 1.43228 15.5552C 0.477428 14.5782 0 13.3124 0 11.758C 0 10.0926 0.56625 8.81575 1.69875 7.92752C 2.83125 7.03928 4.30795 6.59516 6.12883 6.59516L 9.29318 6.59516C 9.27097 5.77354 9.02671 5.14067 8.56038 4.69656C 8.11626 4.23023 7.49449 3.99707 6.69508 3.99707C 5.94008 3.99707 5.11847 4.1081 4.23023 4.33016C 3.34199 4.53001 2.59809 4.77428 1.99853 5.06295L 0.832722 1.46559C 1.45449 1.04368 2.39824 0.699487 3.66398 0.433016C 4.95192 0.144339 5.94008 0 6.62846 0C 8.56038 0 10.2147 0.566254 11.5915 1.69876C 12.9683 2.80905 13.6566 4.23023 13.6566 5.96229L 13.6566 16.5878L 11.4249 16.5878L 10.3591 15.2222C 9.7595 15.6885 9.04891 16.0993 8.22729 16.4546C 7.42788 16.8099 6.62846 16.9875 5.82905 16.9875Z"/>
<path id="path3_fill" d="M 3.69728 11.758C 3.69728 12.2244 3.88604 12.6463 4.26354 13.0238C 4.64104 13.3791 5.14067 13.5567 5.76244 13.5567C 6.36199 13.5567 6.96156 13.4235 7.56112 13.157C 8.18288 12.8905 8.77134 12.4908 9.32649 11.9579L 9.32649 9.49303L 6.06222 9.49303C 5.30722 9.49303 4.71876 9.7262 4.29685 10.1925C 3.89714 10.6588 3.69728 11.1807 3.69728 11.758ZM 5.82905 16.9875C 3.85273 16.9875 2.38714 16.5101 1.43228 15.5552C 0.477428 14.5782 0 13.3124 0 11.758C 0 10.0926 0.56625 8.81575 1.69875 7.92752C 2.83125 7.03928 4.30795 6.59516 6.12883 6.59516L 9.29318 6.59516C 9.27097 5.77354 9.02671 5.14067 8.56038 4.69656C 8.11626 4.23023 7.49449 3.99707 6.69508 3.99707C 5.94008 3.99707 5.11847 4.1081 4.23023 4.33016C 3.34199 4.53001 2.59809 4.77428 1.99853 5.06295L 0.832722 1.46559C 1.45449 1.04368 2.39824 0.699487 3.66398 0.433016C 4.95192 0.144339 5.94008 0 6.62846 0C 8.56038 0 10.2147 0.566254 11.5915 1.69876C 12.9683 2.80905 13.6566 4.23023 13.6566 5.96229L 13.6566 16.5878L 11.4249 16.5878L 10.3591 15.2222C 9.7595 15.6885 9.04891 16.0993 8.22729 16.4546C 7.42788 16.8099 6.62846 16.9875 5.82905 16.9875Z"/>
<path id="path4_fill" d="M 4.29685 0L 4.28627 5.4028C 4.90999 5.01841 5.60752 4.76993 6.31811 4.57008C 7.0509 4.37023 7.70598 4.2703 8.28333 4.2703C 10.6594 4.2703 12.5189 4.88979 13.7846 6.53302C 15.0504 8.17626 15.6832 10.2192 15.6832 12.6619C 15.6832 15.1045 15.0282 17.1475 13.718 18.7907C 12.4301 20.4339 10.6314 21.2556 8.32198 21.2556C 7.56698 21.2556 6.72315 21.1001 5.7905 20.7892C 4.85785 20.4783 4.02514 20.0453 3.29234 19.4902L 2.22645 20.8558L 0.0280694 20.8558L 0 0L 4.29685 0ZM 7.18947 17.5583C 8.67727 17.5583 9.72095 17.0253 10.3205 15.9594C 10.9201 14.8713 11.2199 13.7722 11.2199 12.6619C 11.2199 11.3961 10.9534 10.2636 10.4204 9.26435C 9.88749 8.26509 8.81051 7.76545 7.18947 7.76545C 6.72315 7.76545 6.23462 7.85428 5.72389 8.03193C 5.23536 8.18737 4.76903 8.40942 4.32492 8.6981L 4.32492 16.6256C 4.76903 16.8921 5.23536 17.1141 5.72389 17.2918C 6.23462 17.4694 6.72315 17.5583 7.18947 17.5583Z"/>
<path id="path5_fill" d="M 1.72344 0C 2.20476 0 2.60068 0.163028 2.91121 0.489083C 3.23726 0.815138 3.40029 1.21883 3.40029 1.70015C 3.40029 2.18146 3.23726 2.58516 2.91121 2.91121C 2.60068 3.23727 2.20476 3.40029 1.72344 3.40029C 1.24212 3.40029 0.830665 3.23727 0.489084 2.91121C 0.163028 2.58516 0 2.18146 0 1.70015C 0 1.21883 0.163028 0.815138 0.489084 0.489083C 0.830665 0.163028 1.24212 0 1.72344 0Z"/>
<path id="path6_fill" d="M 8.12736 16.9875C 5.57368 16.9875 3.57515 16.2214 2.13177 14.6892C 0.710589 13.1348 0 11.0585 0 8.46046C 0 5.88457 0.743898 3.83052 2.23169 2.29832C 3.7417 0.766108 5.79574 0 8.39384 0C 11.0808 0 13.157 0.799416 14.6226 2.39824C 16.1104 3.97486 16.8543 6.05112 16.8543 8.627C 16.8543 11.2029 16.0549 13.2458 14.456 14.7558C 12.8572 16.2436 10.7477 16.9875 8.12736 16.9875ZM 12.3909 8.627C 12.3909 7.09479 12.0467 5.89567 11.3583 5.02964C 10.6921 4.14141 9.73729 3.69729 8.49376 3.69729C 7.22803 3.69729 6.23986 4.08589 5.52927 4.8631C 4.81868 5.64031 4.46339 6.82832 4.46339 8.42715C 4.46339 10.026 4.76317 11.2362 5.36273 12.0578C 5.98449 12.8794 6.92825 13.2902 8.19398 13.2902C 9.43751 13.2902 10.4479 12.9238 11.2251 12.1911C 12.0023 11.4361 12.3909 10.248 12.3909 8.627Z"/>
</defs>
</svg>
